<svg width="32" height="41" viewBox="0 0 32 41" fill="none" xmlns="http://www.w3.org/2000/svg">
<g clip-path="url(#clip0_689_40)">
<path d="M31.1678 30.485C31.155 30.4893 31.1464 30.4978 31.1336 30.5021C31.1293 30.4978 31.1293 30.4893 31.125 30.485H31.1678Z" fill="#E31B24"/>
<path d="M31.7243 33.5198C31.7158 33.5583 31.7029 33.5967 31.6943 33.6395C31.4587 34.5072 30.9832 35.2937 30.3362 35.922C27.106 39.0637 22.6889 41 17.8221 41C16.1812 41 14.5918 40.7777 13.0795 40.3674C7.73707 37.7985 5.87773 32.028 5.67637 31.3399C3.74848 24.8 7.49288 20.0683 7.98984 19.3716C9.18514 17.6917 10.7189 16.5419 11.9313 15.7768C7.83133 20.0042 8.06267 24.8342 10.0034 28.0913C11.4172 30.4593 13.8935 31.3484 15.53 31.9383C24.0599 35.0073 28.8796 31.8015 31.1674 30.5705C31.8057 31.8442 31.9043 32.7974 31.7243 33.5198Z" fill="url(#paint0_linear_689_40)"/>
<path opacity="0.41" d="M31.6948 33.5198C31.6863 33.5583 31.6734 33.5967 31.6649 33.6395C31.4292 34.5072 30.9537 35.2937 30.3068 35.922C27.0765 39.0637 22.6595 41 17.7926 41C16.1518 41 14.5623 40.7777 13.05 40.3674C7.70759 37.7985 5.8354 32.0323 5.64689 31.3399C3.86038 24.8 7.42912 20.0469 7.96036 19.3716C9.35701 17.5934 10.6894 16.5419 11.9018 15.7768C7.80184 20.0042 8.03319 24.8342 9.97394 28.0913C11.3877 30.4593 13.8683 31.3399 15.5006 31.9383C24.1589 35.1056 28.8373 31.7673 31.1807 30.5106C31.8191 31.7844 31.8748 32.7974 31.6948 33.5198Z" fill="url(#paint1_radial_689_40)"/>
<path opacity="0.98" d="M15.916 32.152C19.3005 32.7077 21.3655 32.4127 24.5273 29.5446C25.4698 28.6897 26.588 28.5957 26.9693 28.5615C27.4405 28.5188 29.4969 28.3051 31.1678 30.5705C29.7968 31.3826 28.1388 32.3315 25.6412 32.8787C21.0014 33.8917 18.101 32.6649 15.916 32.152Z" fill="url(#paint2_linear_689_40)"/>
<path d="M7.15859 20.6753C3.73123 25.8644 4.29674 35.657 13.2893 40.3888C5.65055 38.3413 0.0253906 31.3826 0.0253906 23.1117C0.0253906 22.8338 0.033959 22.5603 0.0425274 22.2867C0.933642 18.4098 3.69267 15.2981 7.56559 13.5157C13.752 10.6689 19.7799 13.6054 20.4182 13.9431C19.9255 13.9602 12.8309 12.0795 7.15859 20.6753Z" fill="url(#paint3_linear_689_40)"/>
<path opacity="0.41" d="M7.20143 20.5812C3.45275 25.9371 4.29674 35.6528 13.2893 40.3845C5.65055 38.3371 0.0253906 31.3784 0.0253906 23.1074C0.0253906 22.8296 0.033959 22.556 0.0425274 22.2824C0.933642 18.4056 3.69267 15.2938 7.56559 13.5114C13.752 10.6646 19.7799 13.6011 20.4182 13.9388C19.9255 13.9602 13.1093 12.1436 7.20143 20.5812Z" fill="url(#paint4_radial_689_40)"/>
<path d="M30.8677 16.5504C29.7538 17.9952 27.8045 17.9824 27.6845 17.9824C26.6563 17.9866 25.7352 17.8285 24.5271 16.7642C23.0704 15.4818 22.7277 15.1826 20.1058 13.8789C16.7341 12.1991 11.7173 11.6605 7.63873 13.537C3.89006 15.2638 1.01536 18.1149 0 22.2909C0.475547 12.8317 8.31135 5.30878 17.908 5.30878C23.1518 5.30878 27.5431 7.15104 30.8248 10.7373C30.8291 10.7373 33.4382 13.2164 30.8677 16.5504Z" fill="url(#paint5_linear_689_40)"/>
<path d="M30.8677 16.5504C29.7538 17.9952 27.8045 17.9824 27.6845 17.9824C26.6563 17.9866 25.7352 17.8285 24.5271 16.7642C23.0704 15.4818 22.7277 15.1826 20.1058 13.8789C16.7341 12.1991 11.7173 11.6605 7.63873 13.537C3.89006 15.2638 1.01536 18.1149 0 22.2909C0.475547 12.8317 8.31135 5.30878 17.908 5.30878C23.1518 5.30878 27.5431 7.15104 30.8248 10.7373C30.8291 10.7373 33.4382 13.2164 30.8677 16.5504Z" fill="url(#paint6_radial_689_40)"/>
<path d="M28.7684 5.87302C30.394 5.87302 31.7117 4.5583 31.7117 2.93651C31.7117 1.31472 30.394 0 28.7684 0C27.1429 0 25.8252 1.31472 25.8252 2.93651C25.8252 4.5583 27.1429 5.87302 28.7684 5.87302Z" fill="url(#paint7_linear_689_40)"/>
<path opacity="0.58" d="M3.32025 24.5436C4.31638 24.5436 5.1239 23.7379 5.1239 22.744C5.1239 21.7502 4.31638 20.9445 3.32025 20.9445C2.32412 20.9445 1.5166 21.7502 1.5166 22.744C1.5166 23.7379 2.32412 24.5436 3.32025 24.5436Z" fill="url(#paint8_linear_689_40)"/>
<path opacity="0.98" d="M26.3269 36.8539C27.2118 36.8539 27.9292 36.1381 27.9292 35.2552C27.9292 34.3723 27.2118 33.6566 26.3269 33.6566C25.442 33.6566 24.7246 34.3723 24.7246 35.2552C24.7246 36.1381 25.442 36.8539 26.3269 36.8539Z" fill="url(#paint9_linear_689_40)"/>
</g>
<defs>
<linearGradient id="paint0_linear_689_40" x1="1.23622" y1="18.2901" x2="21.6581" y2="35.4004" gradientUnits="userSpaceOnUse">
<stop stop-color="#DC1B24" stop-opacity="0"/>
<stop offset="0.29" stop-color="#DC1B24" stop-opacity="0.5"/>
<stop offset="1" stop-color="#E61B24"/>
</linearGradient>
<radialGradient id="paint1_radial_689_40" cx="0" cy="0" r="1" gradientUnits="userSpaceOnUse" gradientTransform="translate(19.1143 27.3719) scale(17.1467 17.1074)">
<stop offset="0.68" stop-opacity="0"/>
<stop offset="0.93" stop-opacity="0.5"/>
<stop offset="1"/>
</radialGradient>
<linearGradient id="paint2_linear_689_40" x1="15.916" y1="30.9022" x2="31.1678" y2="30.9022" gradientUnits="userSpaceOnUse">
<stop stop-color="#8C0D12" stop-opacity="0"/>
<stop offset="0.29" stop-color="#960D12" stop-opacity="0.5"/>
<stop offset="1" stop-color="#A00D12"/>
</linearGradient>
<linearGradient id="paint3_linear_689_40" x1="4.77357" y1="10.9874" x2="14.5935" y2="28.8191" gradientUnits="userSpaceOnUse">
<stop stop-color="#28679F" stop-opacity="0"/>
<stop offset="0.29" stop-color="#28679F" stop-opacity="0.5"/>
<stop offset="1" stop-color="#32679F"/>
</linearGradient>
<radialGradient id="paint4_radial_689_40" cx="0" cy="0" r="1" gradientUnits="userSpaceOnUse" gradientTransform="translate(12.193 27.8122) scale(15.8181 15.7819)">
<stop offset="0.65" stop-opacity="0"/>
<stop offset="0.93" stop-opacity="0.5"/>
<stop offset="1"/>
</radialGradient>
<linearGradient id="paint5_linear_689_40" x1="-7.27715" y1="13.7999" x2="24.7229" y2="13.7999" gradientUnits="userSpaceOnUse">
<stop stop-color="#78D5EF" stop-opacity="0"/>
<stop offset="0.29" stop-color="#82D5EF" stop-opacity="0.5"/>
<stop offset="1" stop-color="#8CD5EF"/>
</linearGradient>
<radialGradient id="paint6_radial_689_40" cx="0" cy="0" r="1" gradientUnits="userSpaceOnUse" gradientTransform="translate(23.5901 23.3993) scale(23.8626 23.808)">
<stop offset="0.06" stop-color="#E31B24"/>
<stop offset="1" stop-color="#E31B24" stop-opacity="0"/>
</radialGradient>
<linearGradient id="paint7_linear_689_40" x1="24.839" y1="2.93651" x2="30.7255" y2="2.93651" gradientUnits="userSpaceOnUse">
<stop stop-color="#78D5EF" stop-opacity="0"/>
<stop offset="0.29" stop-color="#82D5EF" stop-opacity="0.5"/>
<stop offset="1" stop-color="#8CD5EF"/>
</linearGradient>
<linearGradient id="paint8_linear_689_40" x1="0.59207" y1="22.744" x2="4.19937" y2="22.744" gradientUnits="userSpaceOnUse">
<stop stop-color="#DC1B24" stop-opacity="0"/>
<stop offset="0.29" stop-color="#DC1B24" stop-opacity="0.5"/>
<stop offset="0.36" stop-color="#DD1B24" stop-opacity="0.55"/>
<stop offset="1" stop-color="#E61B24"/>
</linearGradient>
<linearGradient id="paint9_linear_689_40" x1="24.076" y1="35.2552" x2="27.2806" y2="35.2552" gradientUnits="userSpaceOnUse">
<stop stop-color="#8C0D12" stop-opacity="0"/>
<stop offset="0.29" stop-color="#960D12" stop-opacity="0.5"/>
<stop offset="1" stop-color="#A00D12"/>
</linearGradient>
<clipPath id="clip0_689_40">
<rect width="32" height="41" fill="white"/>
</clipPath>
</defs>
</svg>
