<?xml version="1.0" encoding="utf-8"?>
<!-- Generator: Adobe Illustrator 27.0.1, SVG Export Plug-In . SVG Version: 6.00 Build 0)  -->
<svg version="1.1" id="Layer_1" xmlns="http://www.w3.org/2000/svg" xmlns:xlink="http://www.w3.org/1999/xlink" x="0px" y="0px"
	 viewBox="0 0 30 30" style="enable-background:new 0 0 30 30;" xml:space="preserve">
<style type="text/css">
	.st0{fill:#C90016;}
</style>
<path class="st0" d="M15,2.5c-0.6,0-1,0.5-1,1V4H8.5c-0.6,0-1,0.4-1,1c0,0,0,0,0,0H6C5.4,5,5,5.4,5,6s0.4,1,1,1c0,0,0,0,0,0h18
	c0.6,0,1-0.4,1-1s-0.4-1-1-1c0,0,0,0,0,0h-1.5c0-0.6-0.4-1-1-1c0,0,0,0,0,0H16V3.5C16,2.9,15.6,2.5,15,2.5C15,2.5,15,2.5,15,2.5z
	 M6,9l1.8,15.2c0.1,1,1,1.8,2,1.8h10.4c1,0,1.9-0.8,2-1.8L24,9H6z"/>
</svg>
