<?xml version="1.0" encoding="utf-8"?>
<!-- Generator: Adobe Illustrator 27.0.1, SVG Export Plug-In . SVG Version: 6.00 Build 0)  -->
<svg version="1.1" id="Layer_1" xmlns="http://www.w3.org/2000/svg" xmlns:xlink="http://www.w3.org/1999/xlink" x="0px" y="0px"
	 viewBox="0 0 48 48" style="enable-background:new 0 0 48 48;" xml:space="preserve">
<style type="text/css">
	.st0{fill:#FFFFFF;}
</style>
<path class="st0" d="M38.7,18.5l2.4-2.4c2.5-2.5,2.5-6.7,0-9.2C39.9,5.7,38.2,5,36.5,5s-3.4,0.7-4.6,1.9l-2.4,2.4L38.7,18.5z
	 M27.3,11.5L9.3,29.5c-0.4,0.4-0.7,0.9-0.8,1.4L5.1,41c-0.2,0.5,0,1.1,0.4,1.5C5.7,42.8,6.1,43,6.5,43c0.2,0,0.3,0,0.5-0.1l10.1-3.4
	c0.5-0.2,1-0.5,1.4-0.8l18.1-18.1L27.3,11.5z"/>
</svg>
