<svg width="24" height="23" viewBox="0 0 24 23" fill="none" xmlns="http://www.w3.org/2000/svg">
<path d="M12 22C17.7991 22 22.5 17.2991 22.5 11.5C22.5 5.70101 17.7991 1 12 1C6.20101 1 1.5 5.70101 1.5 11.5C1.5 17.2991 6.20101 22 12 22Z" stroke="white" stroke-width="2" stroke-linecap="round" stroke-linejoin="round"/>
<path d="M9.57715 16.3462H14.4233" stroke="white" stroke-width="2" stroke-linecap="round" stroke-linejoin="round"/>
<path d="M12.0002 16.3461V10.6923H10.3848" stroke="white" stroke-width="2" stroke-linecap="round" stroke-linejoin="round"/>
<path d="M12.0005 7.05769C11.7775 7.05769 11.5967 6.87688 11.5967 6.65385C11.5967 6.43081 11.7775 6.25 12.0005 6.25" stroke="white" stroke-width="2" stroke-linecap="round" stroke-linejoin="round"/>
<path d="M12 7.05769C12.223 7.05769 12.4038 6.87688 12.4038 6.65385C12.4038 6.43081 12.223 6.25 12 6.25" stroke="white" stroke-width="2" stroke-linecap="round" stroke-linejoin="round"/>
</svg>
