<svg width="23" height="20" viewBox="0 0 23 20" fill="none" xmlns="http://www.w3.org/2000/svg">
<path d="M2.26923 2.8C2.69406 2.8 3.03846 2.39705 3.03846 1.9C3.03846 1.40295 2.69406 1 2.26923 1C1.8444 1 1.5 1.40295 1.5 1.9C1.5 2.39705 1.8444 2.8 2.26923 2.8Z" stroke="white" stroke-width="2" stroke-linecap="round" stroke-linejoin="round"/>
<path d="M7.6543 1.90002H21.5005" stroke="white" stroke-width="2" stroke-linecap="round" stroke-linejoin="round"/>
<path d="M2.26923 10.9C2.69406 10.9 3.03846 10.497 3.03846 9.99998C3.03846 9.50292 2.69406 9.09998 2.26923 9.09998C1.8444 9.09998 1.5 9.50292 1.5 9.99998C1.5 10.497 1.8444 10.9 2.26923 10.9Z" stroke="white" stroke-width="2" stroke-linecap="round" stroke-linejoin="round"/>
<path d="M7.6543 10H21.5005" stroke="white" stroke-width="2" stroke-linecap="round" stroke-linejoin="round"/>
<path d="M2.26923 19C2.69406 19 3.03846 18.597 3.03846 18.1C3.03846 17.603 2.69406 17.2 2.26923 17.2C1.8444 17.2 1.5 17.603 1.5 18.1C1.5 18.597 1.8444 19 2.26923 19Z" stroke="white" stroke-width="2" stroke-linecap="round" stroke-linejoin="round"/>
<path d="M7.6543 18.1H21.5005" stroke="white" stroke-width="2" stroke-linecap="round" stroke-linejoin="round"/>
</svg>
