<svg width="19" height="19" viewBox="0 0 19 19" fill="none" xmlns="http://www.w3.org/2000/svg">
<path d="M12.5627 13.5492L12.5627 16.0457C12.5627 16.3767 12.4341 16.6943 12.2053 16.9283C11.9764 17.1624 11.6659 17.2939 11.3422 17.2939L2.79864 17.2939C2.47493 17.2939 2.1645 17.1624 1.9356 16.9283C1.70671 16.6943 1.57813 16.3767 1.57813 16.0457L1.57813 2.3149C1.57813 1.98384 1.70671 1.66635 1.9356 1.43225C2.1645 1.19816 2.47493 1.06665 2.79864 1.06665L11.3422 1.06665C11.6659 1.06665 11.9764 1.19816 12.2053 1.43225C12.4341 1.66635 12.5627 1.98384 12.5627 2.3149L12.5627 4.81141" stroke="#C61818" stroke-width="2" stroke-linecap="round" stroke-linejoin="round"/>
<path d="M8.90137 9.1803L17.445 9.1803" stroke="#C61818" stroke-width="2" stroke-linecap="round" stroke-linejoin="round"/>
<path d="M15.0039 6.68379L17.4449 9.1803L15.0039 11.6768" stroke="#C61818" stroke-width="2" stroke-linecap="round" stroke-linejoin="round"/>
</svg>
