<svg width="23" height="22" viewBox="0 0 23 22" fill="none" xmlns="http://www.w3.org/2000/svg">
<path d="M11.5005 12.5385C13.6246 12.5385 15.3466 10.8165 15.3466 8.69231C15.3466 6.56815 13.6246 4.84616 11.5005 4.84616C9.37628 4.84616 7.6543 6.56815 7.6543 8.69231C7.6543 10.8165 9.37628 12.5385 11.5005 12.5385Z" stroke="white" stroke-width="2" stroke-linecap="round" stroke-linejoin="round"/>
<path d="M4.93066 18.5385C5.61719 17.4115 6.58206 16.4801 7.73253 15.834C8.88299 15.1877 10.1803 14.8482 11.4999 14.8482C12.8194 14.8482 14.1168 15.1877 15.2673 15.834C16.4178 16.4801 17.3825 17.4115 18.0692 18.5385" stroke="white" stroke-width="2" stroke-linecap="round" stroke-linejoin="round"/>
<path d="M11.5 21C17.0229 21 21.5 16.5229 21.5 11C21.5 5.47715 17.0229 1 11.5 1C5.97715 1 1.5 5.47715 1.5 11C1.5 16.5229 5.97715 21 11.5 21Z" stroke="white" stroke-width="2" stroke-linecap="round" stroke-linejoin="round"/>
</svg>
