<svg width="22" height="17" viewBox="0 0 22 17" fill="none" xmlns="http://www.w3.org/2000/svg">
<path d="M19.68 1H2.32C1.59098 1 1 1.60859 1 2.35932V14.6407C1 15.3914 1.59098 16 2.32 16H19.68C20.409 16 21 15.3914 21 14.6407V2.35932C21 1.60859 20.409 1 19.68 1Z" stroke="white" stroke-width="2" stroke-linecap="round" stroke-linejoin="round"/>
<path d="M14.6299 6.72473H17.6865" stroke="white" stroke-width="2" stroke-linecap="round" stroke-linejoin="round"/>
<path d="M14.6299 9.84424H17.6865" stroke="white" stroke-width="2" stroke-linecap="round" stroke-linejoin="round"/>
<path d="M5.62598 7.24476C5.62598 8.68042 6.75615 9.84425 8.15028 9.84425C8.50273 9.84425 8.8383 9.76987 9.14301 9.63552C10.0436 9.23842 10.6746 8.31748 10.6746 7.24476C10.6746 5.80909 9.54442 4.64526 8.15028 4.64526C6.75615 4.64526 5.62598 5.80909 5.62598 7.24476Z" stroke="white" stroke-width="2" stroke-linecap="round" stroke-linejoin="round"/>
<path d="M4.31445 12.4184C4.71556 11.6328 5.2793 10.9835 5.95147 10.5329C6.62364 10.0823 7.38164 9.8457 8.15259 9.8457C8.92356 9.8457 9.68156 10.0823 10.3537 10.5329C11.0259 10.9835 11.5896 11.6328 11.9907 12.4184" stroke="white" stroke-width="2" stroke-linecap="round" stroke-linejoin="round"/>
</svg>
